<svg xmlns="http://www.w3.org/2000/svg" width="64" height="58" fill="none" viewBox="0 0 64 58">
  <g filter="url(#filter0_d_33_140)">
    <mask id="a" fill="#fff">
      <path d="M30.522 7.5c0-4.142-3.443-7.615-7.37-6.295a23.048 23.048 0 00-8.917 5.508 22.861 22.861 0 00-6.746 16.206 22.861 22.861 0 006.746 16.206 23.048 23.048 0 008.917 5.508c3.926 1.319 7.37-2.154 7.37-6.296V7.5z"/>
    </mask>
    <path stroke="#8E97FD" stroke-width="2.5" d="M30.522 7.5c0-4.142-3.443-7.615-7.37-6.295a23.048 23.048 0 00-8.917 5.508 22.861 22.861 0 00-6.746 16.206 22.861 22.861 0 006.746 16.206 23.048 23.048 0 008.917 5.508c3.926 1.319 7.37-2.154 7.37-6.296V7.5z" mask="url(#a)" shape-rendering="crispEdges"/>
  </g>
  <g filter="url(#filter1_d_33_140)">
    <mask id="b" fill="#fff">
      <path d="M31.962 38.337c0 4.142 3.443 7.615 7.37 6.295a23.048 23.048 0 008.916-5.507 22.861 22.861 0 006.747-16.206 22.861 22.861 0 00-6.747-16.206 23.05 23.05 0 00-8.917-5.508c-3.926-1.32-7.37 2.153-7.37 6.295v30.837z"/>
    </mask>
    <path stroke="#8E97FD" stroke-width="2.5" d="M31.962 38.337c0 4.142 3.443 7.615 7.37 6.295a23.048 23.048 0 008.916-5.507 22.861 22.861 0 006.747-16.206 22.861 22.861 0 00-6.747-16.206 23.05 23.05 0 00-8.917-5.508c-3.926-1.32-7.37 2.153-7.37 6.295v30.837z" mask="url(#b)" shape-rendering="crispEdges"/>
  </g>
  <path fill="#8E97FD" d="M5.742 51.861c0 .915-.232 1.633-.695 2.157-.461.523-1.103.785-1.926.785-.841 0-1.49-.257-1.95-.77-.455-.515-.683-1.242-.683-2.18 0-.929.23-1.649.688-2.16.458-.512 1.11-.769 1.953-.769.82 0 1.46.26 1.922.781.46.521.691 1.24.691 2.157zm-4.55 0c0 .774.163 1.361.492 1.762.33.399.81.598 1.437.598.633 0 1.11-.2 1.434-.598.323-.398.484-.985.484-1.761 0-.769-.161-1.35-.484-1.747-.32-.398-.796-.597-1.426-.597-.633 0-1.115.2-1.445.601-.329.399-.493.98-.493 1.742zm7.722 2.942c-.279 0-.534-.05-.766-.152a1.455 1.455 0 01-.578-.477h-.047c.032.25.047.487.047.71v1.763h-.648v-6.203h.527l.09.585h.031c.167-.234.361-.403.582-.507.222-.105.476-.157.762-.157.568 0 1.005.194 1.313.582.31.389.464.933.464 1.633 0 .703-.157 1.25-.472 1.64-.313.389-.748.583-1.305.583zm-.094-3.887c-.437 0-.754.121-.949.364-.195.242-.295.627-.3 1.156v.144c0 .602.1 1.033.3 1.293.2.258.522.387.965.387.37 0 .659-.15.867-.45.211-.299.317-.712.317-1.238 0-.533-.106-.942-.317-1.226-.208-.287-.502-.43-.883-.43zm4.817 3.887c-.633 0-1.133-.193-1.5-.578-.365-.386-.547-.92-.547-1.606 0-.69.17-1.238.508-1.644.34-.407.798-.61 1.37-.61.537 0 .962.177 1.274.532.313.351.469.816.469 1.394v.41h-2.95c.014.503.14.885.38 1.145.242.26.582.39 1.02.39.46 0 .916-.096 1.366-.289v.579a3.32 3.32 0 01-.652.21 3.52 3.52 0 01-.738.067zm-.176-3.895c-.344 0-.619.112-.824.336-.203.224-.323.534-.36.93h2.239c0-.409-.091-.721-.274-.938-.182-.218-.443-.328-.781-.328zm5.789 3.817v-2.77c0-.349-.08-.61-.238-.781-.16-.172-.408-.258-.746-.258-.448 0-.776.121-.985.364-.208.242-.312.641-.312 1.199v2.246h-.649v-4.282h.528l.105.587h.031a1.31 1.31 0 01.559-.489c.24-.117.506-.176.8-.176.516 0 .904.125 1.165.375.26.248.39.645.39 1.192v2.793h-.648zm7.75 0l-.71-1.817H24l-.703 1.817h-.672l2.258-5.735h.558l2.247 5.735H27zm-.918-2.414l-.664-1.77a9.48 9.48 0 01-.266-.824c-.057.25-.139.525-.246.824l-.672 1.77h1.848zm4.004 2.492c-.62 0-1.1-.19-1.441-.57-.339-.383-.508-.924-.508-1.621 0-.717.172-1.27.515-1.66.347-.391.839-.587 1.477-.587.206 0 .411.023.617.067.206.044.367.096.485.156l-.2.55a2.913 2.913 0 00-.468-.14 2.03 2.03 0 00-.45-.058c-.87 0-1.304.554-1.304 1.664 0 .526.105.93.316 1.21.213.282.529.422.945.422.357 0 .723-.076 1.098-.23v.574c-.287.149-.647.223-1.082.223zm4.734-.078l-.129-.61h-.03c-.214.269-.428.45-.642.547-.21.094-.475.14-.792.14-.425 0-.758-.108-1-.327-.24-.219-.36-.53-.36-.934 0-.864.692-1.317 2.074-1.36l.727-.023v-.265c0-.336-.073-.584-.219-.742-.143-.162-.373-.243-.691-.243-.357 0-.76.11-1.211.328l-.2-.496c.212-.114.442-.204.692-.27.253-.064.505-.097.758-.097.51 0 .888.114 1.133.34.247.227.37.59.37 1.09v2.922h-.48zm-1.465-.457c.404 0 .72-.11.95-.332.231-.222.347-.532.347-.93v-.387l-.648.028c-.516.018-.888.099-1.117.242-.227.14-.34.36-.34.66 0 .234.07.413.21.535.144.123.343.184.599.184zm6.2-.117h-.035c-.3.434-.748.652-1.344.652-.56 0-.996-.191-1.309-.574-.31-.383-.465-.927-.465-1.633s.157-1.254.47-1.645c.312-.39.746-.586 1.304-.586.58 0 1.026.211 1.336.633h.05l-.027-.308-.015-.301v-1.742h.648v6.078h-.527l-.086-.574zm-1.297.109c.442 0 .763-.12.96-.36.201-.242.301-.63.301-1.167v-.137c0-.607-.101-1.04-.304-1.297-.2-.26-.522-.39-.965-.39-.38 0-.672.148-.875.445-.2.294-.3.71-.3 1.25 0 .547.1.96.3 1.238.2.279.495.418.883.418zm5.097.543c-.632 0-1.132-.193-1.5-.578-.364-.386-.546-.92-.546-1.606 0-.69.169-1.238.507-1.644.342-.407.799-.61 1.371-.61.537 0 .961.177 1.274.532.312.351.469.816.469 1.394v.41h-2.95c.014.503.14.885.38 1.145.242.26.581.39 1.019.39.46 0 .917-.096 1.367-.289v.579c-.23.098-.447.169-.652.21-.203.045-.45.067-.739.067zm-.175-3.895c-.344 0-.619.112-.825.336-.203.224-.322.534-.359.93h2.238c0-.409-.09-.721-.273-.938-.182-.218-.443-.328-.781-.328zm8.316 3.817V51.94c0-.341-.073-.597-.219-.766-.145-.172-.372-.258-.68-.258-.403 0-.701.116-.894.348-.193.232-.289.588-.289 1.07v2.39h-.648V51.94c0-.341-.073-.597-.22-.766-.145-.172-.373-.258-.683-.258-.406 0-.704.123-.894.367-.188.243-.282.641-.282 1.196v2.246h-.648v-4.282h.527l.106.587h.031c.122-.209.294-.372.516-.489.224-.117.474-.176.75-.176.669 0 1.106.243 1.312.727h.032c.127-.224.312-.401.554-.531.242-.13.518-.196.828-.196.485 0 .847.125 1.086.375.242.248.364.645.364 1.192v2.793h-.649zm2.637 0h-.649v-4.282h.649v4.282zm-.703-5.442c0-.148.036-.256.11-.324a.378.378 0 01.273-.105c.104 0 .194.035.269.105.076.07.113.179.113.324 0 .146-.037.256-.113.328a.382.382 0 01-.27.106c-.109 0-.2-.035-.273-.105-.073-.073-.11-.183-.11-.329zm3.789 5.52c-.62 0-1.1-.19-1.442-.57-.338-.383-.508-.924-.508-1.621 0-.717.172-1.27.516-1.66.347-.391.839-.587 1.477-.587.205 0 .411.023.617.067.206.044.367.096.484.156l-.199.55a2.918 2.918 0 00-.469-.14 2.03 2.03 0 00-.449-.058c-.87 0-1.305.554-1.305 1.664 0 .526.106.93.317 1.21.213.282.528.422.945.422.357 0 .723-.076 1.098-.23v.574c-.287.149-.647.223-1.082.223zM30.352 8.607c-2.002.17-3.613.57-5.189 1.286l-.54.247-.227-.194c-.323-.276-.737-.4-1.228-.364-.677.047-1.192.394-1.504.998a1.778 1.778 0 00-.102 1.304l.072.223-.73.723c-.66.651-.738.745-.738.933 0 .147.042.235.156.323.294.223.39.176 1.156-.581l.713-.705.324.147c.437.2 1.084.206 1.516.006.305-.135.647-.423.815-.675l.09-.141.599.193c1.228.4 2.654 1.01 3.54 1.515l.432.247-.036.311c-.024.206 0 .429.066.64l.096.33-1.007.992a26.703 26.703 0 00-1.582 1.69l-.569.706-.467-.018c-.42-.018-.497-.006-.845.164-.222.106-.455.27-.551.394l-.252.311c-.078.094-.251.118-1.288.176a28.16 28.16 0 00-3.529.388c-.863.147-.892.147-.952.041-.084-.141-.402-.452-.546-.529-.113-.058-.107-.093.168-.916.246-.745.797-1.932 1.324-2.865.186-.323.138-.523-.143-.664-.36-.188-.54-.006-1.169 1.198-.383.734-.815 1.785-.994 2.443l-.138.482-.336.064c-.958.188-1.575.98-1.486 1.915a1.77 1.77 0 001.09 1.48l.252.1.037.857c.143 3.517 1.845 7.193 4.463 9.642.473.446.485.458.42.64-.097.27-.03.922.125 1.216.27.516.827.91 1.396.986a1.66 1.66 0 001.138-.235l.33-.194.354.177c1.264.628 3.049 1.139 4.667 1.339.773.093 2.702.093 3.475 0 1.617-.2 3.444-.729 4.763-1.386l.27-.135.203.17c.45.364 1.228.458 1.78.206.664-.3 1.048-.828 1.09-1.492.018-.2-.006-.482-.048-.617l-.066-.252.617-.617c2.283-2.272 3.66-4.968 4.158-8.157.132-.834.15-3.041.036-3.846-.282-1.92-.857-3.7-1.66-5.091-.24-.423-.263-.488-.186-.57.318-.346.432-1.122.24-1.668-.126-.364-.551-.816-.934-1.004-.348-.17-.9-.205-1.313-.088l-.227.07-.474-.422-.479-.423.03-.488c.024-.364.006-.563-.066-.786-.21-.605-.863-1.11-1.534-1.17-.473-.04-.695.007-1.108.248l-.347.211-.665-.276c-1.325-.546-2.54-.88-3.87-1.057-.636-.082-2.385-.147-2.877-.106zm2.857.993c1.24.176 2.45.51 3.535.98l.557.235-.036.247c-.024.13-.048.247-.054.258a17.85 17.85 0 01-.802.282 20.777 20.777 0 00-3.577 1.586l-.24.14-.252-.181a1.875 1.875 0 00-2.15 0l-.24.17-.264-.147c-1.054-.599-2.965-1.415-4.08-1.744-.509-.153-.527-.164-.527-.329 0-.158.042-.194.408-.376 1.258-.616 3.199-1.11 4.865-1.233.61-.041 2.198.018 2.857.112zm-9.508.957c.63.305.647 1.216.036 1.574a.911.911 0 01-.958-.059c-.306-.223-.414-.464-.384-.81.018-.159.084-.364.15-.447.15-.205.473-.364.737-.364.114 0 .305.047.42.106zm15.805.012c.575.346.581 1.215.012 1.544-.204.117-.6.141-.845.053-.353-.135-.593-.617-.509-1.016.114-.575.833-.887 1.342-.581zm-1.78 1.961c.366.388.762.57 1.277.575.401.006.755-.082 1.012-.258.09-.064.186-.106.216-.094.03.012.222.176.425.364l.372.347-.144.293c-.108.241-.138.394-.132.77 0 .581.174.95.605 1.32l.282.248-.228.687a26.761 26.761 0 01-2.055 4.61c-.449.798-.467.816-.635.78a2.657 2.657 0 00-.395-.035c-.216 0-.216-.006-.545-.628-1.043-1.997-2.607-4.029-4.242-5.532l-.635-.587.084-.223c.041-.124.084-.423.084-.664l.005-.434.24-.141a26.292 26.292 0 012.169-1.046c.51-.211 1.791-.657 1.893-.663.03-.006.186.135.348.311zm5.255 1.21c.779.47.443 1.644-.473 1.644a.891.891 0 01-.893-.88c0-.676.779-1.11 1.366-.764zm-11.252.07c.324.217.432.411.432.746 0 .529-.36.904-.875.904-.689 0-1.12-.663-.82-1.262.233-.482.844-.664 1.263-.388zm-1.162 2.402c.396.176.959.17 1.42 0l.342-.135.563.505c.563.51 1.36 1.357 1.983 2.12.563.681 1.593 2.243 2.007 3.036.371.71.383.752.288.851-.102.094-.132.088-.66-.152-1.995-.91-4.008-1.598-5.979-2.032-.773-.17-2.396-.44-2.648-.44-.126 0-.186-.047-.264-.194a4.18 4.18 0 00-.233-.37l-.138-.177.545-.675c.54-.657 2.313-2.46 2.427-2.46.03 0 .185.058.347.123zm12.917.552c.695 1.286 1.186 2.83 1.438 4.522.12.798.102 2.895-.03 3.729-.12.722-.45 2.05-.61 2.454l-.103.247-.461-.411c-.827-.746-2.121-1.797-2.852-2.314l-.713-.505.018-.487c.012-.435-.006-.517-.156-.805-.096-.176-.21-.376-.251-.446-.072-.106-.036-.2.407-.975a27.85 27.85 0 002.091-4.698l.27-.804.245-.024a4.98 4.98 0 01.336-.017c.048.005.215.246.371.534zM26.44 19.73c.222.129.438.505.438.745 0 .27-.246.67-.48.793-.425.217-.97.088-1.21-.294a.924.924 0 01.288-1.25c.233-.153.706-.147.964.006zm-8.903.68c.252.124.414.43.414.77 0 1.133-1.672 1.21-1.786.076-.072-.734.683-1.198 1.372-.845zm6.662.47c.024.13.132.382.24.558l.198.318-.282.587c-.82 1.732-1.402 3.735-1.713 5.901-.084.582-.108 1.134-.108 2.678v1.95l-.198.123c-.18.118-.204.118-.341.03-.222-.141-1.055-1.063-1.522-1.692-1.66-2.196-2.786-5.18-2.924-7.728l-.036-.675.318-.14c.575-.253.952-.747 1.006-1.31.03-.323-.102-.277 1.42-.482 1.438-.194 3.265-.376 3.685-.364.192.006.21.023.257.247zm5.075.177c2.235.399 4.62 1.145 6.638 2.084l.683.318.006.47c.012.37.042.534.168.774l.15.3-.623.728c-1.175 1.35-2.876 2.936-4.302 3.993a28.576 28.576 0 01-6.363 3.518l-.79.311-.186-.217a1.868 1.868 0 00-.929-.564l-.245-.064-.037-.482c-.06-.752-.047-2.466.024-3.218a19.292 19.292 0 011.588-6.031l.336-.752h.55c.456 0 .588-.023.81-.135.377-.2.767-.616.886-.963l.108-.293.36.04c.197.018.725.1 1.168.183zm9.646 2.137c.533.37.467 1.216-.12 1.51-.323.164-.491.17-.809.017a.883.883 0 01-.066-1.562.924.924 0 01.995.035zm1.336 2.449c1.096.775 2.27 1.75 3.067 2.537l.474.476-.222.446c-.67 1.327-1.881 2.913-2.9 3.805l-.251.218-.246-.124c-.234-.117-.252-.14-.216-.311.024-.106.054-.681.078-1.28l.036-1.098-.156-.153c-.191-.188-.425-.194-.605-.018-.126.13-.137.194-.18 1.245-.017.617-.053 1.18-.071 1.263-.024.117-.102.176-.342.258-.221.077-.413.206-.647.44-.407.412-.551.758-.527 1.334l.012.393-.342.17c-.515.253-1.48.611-2.192.81-3.104.876-6.555.617-9.466-.71l-.528-.24.03-.335c.018-.182.048-.347.072-.364.018-.024.425-.188.905-.376a28.184 28.184 0 008.028-4.827c.929-.805 2.319-2.197 3.014-3.019l.527-.622.311.082c.168.041.366.076.438.076.12 0 .15.06.263.535.066.293.18.804.24 1.133.138.74.15.775.353.857.186.071.408.012.54-.14.114-.136.054-.682-.198-1.768l-.204-.88.126-.1c.072-.06.15-.106.18-.106.024 0 .293.176.599.393zm-16.554 8.08a.88.88 0 010 1.574.898.898 0 01-1.192-.358c-.216-.376-.144-.799.186-1.098.3-.276.629-.317 1.006-.118zm16.212.159c.222.211.324.429.324.716 0 .881-1.198 1.198-1.684.447-.095-.153-.113-.264-.095-.54.018-.318.041-.365.275-.582.252-.229.264-.229.635-.205.306.017.42.052.545.164z"/>
  <defs>
    <filter id="filter0_d_33_140" width="31.033" height="51.996" x="3.489" y=".92" color-interpolation-filters="sRGB" filterUnits="userSpaceOnUse">
      <feFlood flood-opacity="0" result="BackgroundImageFix"/>
      <feColorMatrix in="SourceAlpha" result="hardAlpha" values="0 0 0 0 0 0 0 0 0 0 0 0 0 0 0 0 0 0 127 0"/>
      <feOffset dy="4"/>
      <feGaussianBlur stdDeviation="2"/>
      <feComposite in2="hardAlpha" operator="out"/>
      <feColorMatrix values="0 0 0 0 0 0 0 0 0 0 0 0 0 0 0 0 0 0 0.25 0"/>
      <feBlend in2="BackgroundImageFix" result="effect1_dropShadow_33_140"/>
      <feBlend in="SourceGraphic" in2="effect1_dropShadow_33_140" result="shape"/>
    </filter>
    <filter id="filter1_d_33_140" width="31.033" height="51.996" x="27.962" y=".92" color-interpolation-filters="sRGB" filterUnits="userSpaceOnUse">
      <feFlood flood-opacity="0" result="BackgroundImageFix"/>
      <feColorMatrix in="SourceAlpha" result="hardAlpha" values="0 0 0 0 0 0 0 0 0 0 0 0 0 0 0 0 0 0 127 0"/>
      <feOffset dy="4"/>
      <feGaussianBlur stdDeviation="2"/>
      <feComposite in2="hardAlpha" operator="out"/>
      <feColorMatrix values="0 0 0 0 0 0 0 0 0 0 0 0 0 0 0 0 0 0 0.25 0"/>
      <feBlend in2="BackgroundImageFix" result="effect1_dropShadow_33_140"/>
      <feBlend in="SourceGraphic" in2="effect1_dropShadow_33_140" result="shape"/>
    </filter>
  </defs>
</svg>
