<svg xmlns="http://www.w3.org/2000/svg" width="19" height="15" fill="none" viewBox="0 0 19 15">
  <path fill="#495ECA" d="M4.572 2.072C1.989 3.228 0 4.202 0 4.314c0 .099.742.507 1.633.902l1.633.733V7.6c0 1.931.148 2.255 1.47 3.13 2.003 1.339 5.358 1.663 7.94.76.936-.31.98-.324.98-.07 0 .155-.133.395-.312.564-.237.226-.281.38-.207.663.06.211.118.817.133 1.367l.015.987h1.336l.015-.987c.015-.55.074-1.156.134-1.367.074-.282.03-.437-.208-.663-.475-.451-.416-1.156.148-1.55.876-.621 1.024-1.03 1.024-2.848V5.949l1.633-.719c.92-.409 1.633-.803 1.633-.916C19 4.074 9.916-.014 9.44 0c-.163 0-2.36.93-4.868 2.072zm9.203.339l4.2 1.875-1.914.874-1.915.888-2.33-1.071c-2.138-.973-2.613-1.114-2.613-.748 0 .07.95.578 2.108 1.128l2.108 1.001-1.692.761c-.936.423-1.841.804-2.034.846-.223.057-1.588-.48-4.513-1.79-3.74-1.678-4.14-1.89-3.83-2.016.194-.085 2.064-.93 4.142-1.875 2.078-.93 3.86-1.72 3.934-1.72.089-.014 2.033.818 4.349 1.847zm-2.227 5.413l2.034-.902.045 1.635c.014.903 0 1.72-.03 1.819-.104.226-1.069.634-2.093.874-.935.226-3.058.226-4.008 0-1.143-.254-2.553-.959-3.117-1.55l-.52-.55V6.216l2.836 1.255 2.82 1.255 2.033-.903zm3.593-.155c0 1.438-.015 1.48-.446 1.932l-.43.465-.015-1.72v-1.72l.416-.212c.222-.112.415-.211.445-.225.015 0 .03.663.03 1.48zm-.95 4.737c.148.24-.193.508-.401.31-.178-.169-.06-.465.163-.465.074 0 .178.07.238.155zm-.09 1.819c0 .155-.059.282-.148.282-.074 0-.148-.127-.148-.282 0-.155.074-.282.148-.282.09 0 .149.127.149.282z"/>
</svg>
