<svg xmlns="http://www.w3.org/2000/svg" width="35" height="32" fill="none" viewBox="0 0 35 32">
  <g filter="url(#filter0_d_57_415)">
    <path fill="#495ECA" d="M15.645.447c-1.008.504-2.176 2.015-2.176 2.81 0 .465-.02.485-1.028.368a67.335 67.335 0 01-3.225-.523c-3.066-.543-3.758-.523-4.45.174-.693.66-.93 1.454-.653 2.171.356.93 11.73 17.79 12.284 18.217.673.504 2.255.426 2.809-.136.534-.561 11.493-17.519 11.71-18.14.257-.697-.099-1.763-.771-2.286-.673-.523-1.563-.504-4.708.097-3.422.64-3.343.64-3.64-.29-.297-.97-1.226-2.036-2.215-2.54-1.069-.523-2.79-.484-3.937.078zm3.462 1.298c1.503.911 1.82 2.675.83 4.652-.652 1.337-1.82 2.713-2.314 2.713-.474 0-1.404-1.124-2.156-2.617-.771-1.53-.85-3.042-.178-3.876.99-1.24 2.592-1.608 3.818-.872zM10.384 4.73c1.622.271 2.986.504 3.006.504.02 0 .159.33.297.717.692 2.112 2.235 4.128 3.462 4.515.573.194.79.175 1.424-.135.97-.504 2.077-1.958 2.77-3.624.593-1.434.692-1.512 2.511-1.822.653-.116 2.058-.349 3.126-.543 1.918-.349 1.938-.349 2.354.058l.395.407-5.578 8.605c-3.086 4.71-5.736 8.74-5.895 8.915-.613.717-.969.426-2.71-2.17-.93-1.396-2.452-3.683-3.402-5.098-.93-1.395-2.809-4.205-4.154-6.201-2.848-4.264-3.046-4.942-1.345-4.729.435.058 2.117.33 3.739.6z"/>
  </g>
  <defs>
    <filter id="filter0_d_57_415" width="35" height="32" x="0" y="0" color-interpolation-filters="sRGB" filterUnits="userSpaceOnUse">
      <feFlood flood-opacity="0" result="BackgroundImageFix"/>
      <feColorMatrix in="SourceAlpha" result="hardAlpha" values="0 0 0 0 0 0 0 0 0 0 0 0 0 0 0 0 0 0 127 0"/>
      <feOffset dy="4"/>
      <feGaussianBlur stdDeviation="2"/>
      <feComposite in2="hardAlpha" operator="out"/>
      <feColorMatrix values="0 0 0 0 0 0 0 0 0 0 0 0 0 0 0 0 0 0 0.25 0"/>
      <feBlend in2="BackgroundImageFix" result="effect1_dropShadow_57_415"/>
      <feBlend in="SourceGraphic" in2="effect1_dropShadow_57_415" result="shape"/>
    </filter>
  </defs>
</svg>
