<svg xmlns="http://www.w3.org/2000/svg" width="13" height="14" fill="none" viewBox="0 0 13 14">
  <path fill="#495ECA" d="M5.18.013c-.301.03-.696.085-.886.121C2.352.512.899 1.784.276 3.64a5.426 5.426 0 00.027 3.495c.13.372.26.643.59 1.23.74 1.308.92 1.669 1.071 2.118.15.45.19.676.204 1.144.02.636-.051 1.11-.273 1.797-.07.215-.117.396-.108.405.036.034.258.094.276.076.024-.027.188-.541.26-.814.099-.376.146-.726.16-1.17.015-.5-.012-.775-.118-1.191-.147-.593-.39-1.1-1.233-2.585-.448-.79-.645-1.31-.766-2.037-.056-.326-.056-1.21 0-1.533C.709 2.6 1.96 1.146 3.8.582A6.798 6.798 0 014.82.367C5.197.316 5.957.297 6.255.331 8.16.548 9.76 1.784 10.403 3.534c.096.26.213.718.26 1.03.04.263.056 1.06.032 1.7-.02.503.022.595.706 1.533.383.528.527.74.527.785 0 .097-.16.23-.364.307-.181.065-.351.195-.414.313-.054.108-.047.273.022.434.101.235.08.298-.148.444l-.13.08.079.099c.094.114.125.188.125.293 0 .145-.105.273-.287.344-.054.02-.07.038-.06.065.051.128.085.334.087.506.005.582-.383 1.018-.901 1.018-.07 0-.469-.051-.886-.112-.663-.098-.776-.111-.876-.09-.341.07-.633.332-.776.695-.043.107-.213.848-.197.859.029.022.278.076.289.063.009-.01.042-.141.074-.296.085-.4.103-.467.163-.588.104-.206.308-.38.503-.425.031-.01.394.035.807.096.41.062.811.112.888.112.195 0 .35-.036.54-.126.473-.226.751-.792.677-1.383l-.025-.192.079-.07a.7.7 0 00.215-.476.857.857 0 00-.034-.224c-.029-.085-.029-.092.027-.146.155-.154.182-.382.074-.628-.056-.13-.063-.164-.042-.208.027-.063.163-.144.36-.218a.822.822 0 00.397-.342.51.51 0 00.016-.38c-.016-.04-.264-.397-.551-.788-.287-.394-.54-.761-.565-.817-.092-.21-.112-.383-.083-.72.033-.397.013-1.243-.036-1.563C10.7 2.771 9.717 1.388 8.184.595a5.481 5.481 0 00-1.79-.564A8.857 8.857 0 005.18.013z"/>
</svg>
