<svg xmlns="http://www.w3.org/2000/svg" width="32" height="32" fill="none" viewBox="0 0 32 32">
  <g filter="url(#filter0_d_57_413)">
    <path fill="#495ECA" fill-rule="evenodd" d="M12.014.068c0 .064-.028.067-.55.067-.46 0-.549.008-.549.05 0 .043-.072.052-.406.052-.335 0-.407.009-.407.05 0 .04-.057.051-.265.051-.237 0-.264.007-.264.068 0 .054-.027.067-.142.067-.1 0-.143.016-.143.05 0 .04-.05.052-.203.052-.154 0-.204.012-.204.05 0 .039-.05.051-.203.051-.176 0-.203.01-.203.068 0 .054-.028.067-.143.067-.1 0-.142.016-.142.051 0 .034-.04.05-.122.05-.082 0-.122.018-.122.051 0 .029-.036.051-.082.051-.054 0-.08.023-.08.068 0 .052-.028.067-.123.067-.081 0-.122.017-.122.051 0 .035-.043.05-.142.05-.1 0-.143.016-.143.051 0 .028-.027.051-.06.051-.035 0-.062.03-.062.068 0 .045-.027.067-.081.067-.045 0-.082.023-.082.051 0 .028-.027.05-.06.05-.034 0-.062.024-.062.051 0 .036-.042.051-.142.051-.115 0-.142.013-.142.068 0 .037-.027.067-.061.067s-.061.023-.061.051c0 .028-.028.05-.061.05-.034 0-.061.024-.061.051 0 .029-.037.051-.082.051-.054 0-.081.023-.081.068 0 .037-.027.067-.061.067s-.061.023-.061.051c0 .028-.028.05-.061.05-.043 0-.061.036-.061.12 0 .095-.016.117-.081.117-.046 0-.082.023-.082.051 0 .028-.027.05-.06.05-.043 0-.062.036-.062.12 0 .082-.018.117-.06.117-.034 0-.062.023-.062.051 0 .028-.036.05-.081.05-.066 0-.082.023-.082.12 0 .082-.018.117-.06.117-.034 0-.062.023-.062.051 0 .028-.027.05-.06.05-.043 0-.062.037-.062.12 0 .095-.015.117-.081.117-.063 0-.081.023-.081.102 0 .068-.02.101-.061.101-.046 0-.061.042-.061.17 0 .127-.015.168-.061.168-.043 0-.061.036-.061.119 0 .095-.016.118-.082.118-.07 0-.081.023-.081.169 0 .128-.015.169-.061.169-.048 0-.061.047-.061.22 0 .172-.013.22-.061.22-.049 0-.061.048-.061.236 0 .214-.008.237-.082.237-.076 0-.081.022-.081.338 0 .278-.01.338-.061.338C4.008 6.22 4 6.44 4 8.01c0 1.57.008 1.792.061 1.792.05 0 .061.06.061.338 0 .315.005.338.081.338s.082.022.082.338c0 .278.01.338.06.338.05 0 .062.054.062.287 0 .233.011.288.06.288.05 0 .062.052.062.27 0 .248.007.27.081.27.07 0 .082.023.082.17 0 .127.014.168.06.168.034 0 .062.03.062.068 0 .064.027.068.467.068.389 0 .468.008.468.05s.072.051.407.051c.334 0 .407.01.407.05 0 .042.065.052.345.052.32 0 .346.005.346.067 0 .063.027.068.407.068.334 0 .407.009.407.05 0 .042.072.051.407.051.334 0 .406.01.406.05 0 .043.08.051.468.051.44 0 .468.004.468.068 0 .063.027.068.407.068.334 0 .406.009.406.05s.066.051.346.051c.28 0 .346.01.346.05 0 .043.072.052.407.052.38 0 .407.004.407.067 0 .064.027.068.467.068.39 0 .468.008.468.05s.072.051.407.051c.334 0 .407.01.407.05s.05.052.203.052h.204v-.39c0-.322-.01-.388-.062-.388-.046 0-.06-.041-.06-.169 0-.146-.011-.169-.082-.169-.07 0-.081-.023-.081-.169 0-.128-.015-.169-.061-.169s-.061-.041-.061-.169-.015-.169-.061-.169c-.04 0-.061-.034-.061-.101 0-.08-.018-.102-.082-.102-.07 0-.081-.022-.081-.169 0-.128-.015-.169-.061-.169-.043 0-.061-.036-.061-.118 0-.083-.018-.118-.061-.118-.048 0-.061-.047-.061-.22 0-.197-.008-.22-.081-.22-.066 0-.082-.022-.082-.118 0-.083-.018-.118-.06-.118-.047 0-.062-.042-.062-.17 0-.127-.015-.168-.06-.168-.047 0-.062-.042-.062-.17 0-.146-.01-.169-.081-.169-.07 0-.082-.022-.082-.169 0-.127-.014-.169-.06-.169-.049 0-.062-.047-.062-.22 0-.172-.013-.219-.06-.219s-.062-.041-.062-.169c0-.146-.01-.17-.081-.17-.074 0-.081-.022-.081-.236 0-.187-.013-.236-.061-.236-.05 0-.061-.053-.061-.27 0-.219-.012-.271-.061-.271-.052 0-.061-.073-.061-.456 0-.434-.004-.457-.082-.457s-.081-.022-.081-.625.003-.626.081-.626c.076 0 .082-.022.082-.338 0-.277.01-.338.06-.338.049 0 .062-.047.062-.22 0-.172.013-.219.06-.219.043 0 .062-.036.062-.118 0-.096.015-.119.081-.119s.081-.022.081-.118c0-.083.019-.118.061-.118.041 0 .061-.034.061-.102 0-.067.02-.101.061-.101.043 0 .061-.036.061-.118 0-.096.016-.119.082-.119.045 0 .081-.022.081-.05 0-.028.028-.051.061-.051.034 0 .061-.03.061-.068 0-.037.027-.067.061-.067s.061-.023.061-.051c0-.028.036-.05.082-.05.045 0 .08-.023.08-.051 0-.028.028-.051.062-.051s.061-.03.061-.068c0-.037.027-.067.061-.067s.061-.023.061-.051c0-.035.043-.05.142-.05.1 0 .143-.016.143-.051 0-.035.04-.051.126-.051.091 0 .131-.018.147-.068.015-.048.055-.067.138-.067.077 0 .118-.018.118-.051 0-.035.043-.05.142-.05.1 0 .142-.016.142-.051 0-.039.05-.051.204-.051.176 0 .203-.01.203-.068 0-.06.027-.067.264-.067.208 0 .265-.011.265-.051 0-.042.072-.05.407-.05.334 0 .407-.01.407-.052 0-.044.187-.05 1.444-.05 1.256 0 1.444.006 1.444.05 0 .044.117.051.813.051s.814.008.814.05c0 .043.085.052.528.052.444 0 .53-.009.53-.051 0-.036.042-.05.142-.05h.142v-.17c0-.146-.01-.169-.081-.169-.045 0-.082-.022-.082-.05 0-.028-.027-.051-.06-.051-.034 0-.062-.023-.062-.05 0-.029-.027-.052-.06-.052-.035 0-.062-.03-.062-.067 0-.055-.027-.068-.142-.068-.1 0-.142-.015-.142-.05 0-.036-.043-.051-.143-.051-.1 0-.142-.016-.142-.051 0-.034-.04-.05-.122-.05-.095 0-.122-.016-.122-.068 0-.055-.027-.068-.143-.068-.1 0-.142-.015-.142-.05 0-.039-.05-.051-.203-.051-.154 0-.204-.013-.204-.051 0-.035-.043-.05-.142-.05-.115 0-.143-.014-.143-.068 0-.059-.027-.068-.203-.068-.154 0-.203-.012-.203-.05 0-.039-.05-.051-.204-.051-.153 0-.203-.013-.203-.051s-.05-.05-.204-.05c-.176 0-.203-.01-.203-.068 0-.061-.027-.068-.264-.068-.208 0-.265-.01-.265-.05 0-.039-.05-.051-.203-.051-.154 0-.203-.013-.203-.051 0-.04-.057-.05-.265-.05-.237 0-.264-.008-.264-.068 0-.063-.027-.068-.346-.068-.28 0-.346-.01-.346-.05 0-.043-.079-.051-.468-.051-.388 0-.467-.009-.467-.051 0-.043-.104-.05-.692-.05-.664 0-.691-.003-.691-.068 0-.066-.028-.068-1.2-.068-1.173 0-1.2.002-1.2.068zm3.905 4.394c0 .059-.027.068-.204.068-.153 0-.203.012-.203.05 0 .039-.05.051-.204.051-.153 0-.203.012-.203.05 0 .034-.04.051-.122.051-.095 0-.122.015-.122.068 0 .055-.027.068-.142.068-.1 0-.143.015-.143.05 0 .028-.027.051-.06.051-.034 0-.062.023-.062.05 0 .029-.036.051-.081.051-.054 0-.082.023-.082.068 0 .038-.027.068-.06.068-.034 0-.062.022-.062.05 0 .028-.027.051-.06.051-.034 0-.062.023-.062.05 0 .029-.036.051-.08.051-.055 0-.082.023-.082.068 0 .038-.027.068-.061.068-.04 0-.061.033-.061.101s-.02.101-.061.101c-.043 0-.061.036-.061.119 0 .096-.016.118-.082.118-.073 0-.081.023-.081.22 0 .173-.013.22-.061.22-.05 0-.061.065-.061.388s.01.389.06.389c.05 0 .062.054.062.287 0 .265.006.288.081.288.066 0 .082.022.082.118 0 .083.018.118.06.118.047 0 .062.042.062.17 0 .127.015.168.06.168.041 0 .062.034.062.102 0 .079.018.101.081.101.054 0 .082.023.082.068 0 .037.027.067.06.067.041 0 .061.034.061.102 0 .067.02.101.061.101.034 0 .061.03.061.068 0 .045.028.067.082.067.063 0 .081.023.081.102 0 .067.02.101.061.101.034 0 .061.03.061.068 0 .037.027.067.061.067s.061.023.061.051c0 .028.037.05.082.05.045 0 .081.023.081.051 0 .028.027.051.061.051s.061.03.061.068c0 .037.027.067.061.067s.061.023.061.051c0 .036.043.05.143.05.099 0 .142.016.142.052 0 .027.027.05.06.05.035 0 .062.03.062.068 0 .045.027.067.081.067.045 0 .082.023.082.051 0 .028.027.05.06.05.034 0 .062.024.062.051 0 .036.042.051.142.051.115 0 .142.013.142.068 0 .052.027.067.122.067.082 0 .122.017.122.051 0 .028.037.05.082.05.045 0 .081.023.081.052 0 .038.05.05.204.05.176 0 .203.01.203.068 0 .059.027.068.203.068.154 0 .204.012.204.05 0 .039.05.05.203.05.154 0 .204.013.204.052 0 .042.079.05.467.05.44 0 .468.004.468.068 0 .058.027.067.187.067.152 0 .19-.012.208-.067.02-.063.056-.068.484-.068.385 0 .463-.008.463-.05 0-.04.057-.051.265-.051.208 0 .264-.01.264-.05s.05-.051.204-.051c.176 0 .203-.01.203-.068 0-.055.027-.068.142-.068.1 0 .143-.015.143-.05 0-.028.027-.051.06-.051.034 0 .062-.023.062-.05 0-.036.043-.052.142-.052.115 0 .143-.012.143-.067 0-.038.027-.068.06-.068.034 0 .062-.023.062-.05 0-.029.036-.051.08-.051.046 0 .082-.023.082-.05 0-.029.028-.052.061-.052.043 0 .061-.035.061-.118 0-.083.019-.118.061-.118.034 0 .061-.021.061-.047s.037-.055.082-.064c.059-.013.081-.047.081-.123 0-.07.02-.104.061-.104.048 0 .061-.047.061-.22s.013-.22.061-.22c.05 0 .061-.065.061-.388s-.01-.39-.06-.39c-.05 0-.062-.054-.062-.286 0-.233-.011-.288-.06-.288-.044 0-.062-.035-.062-.118 0-.096-.015-.118-.081-.118-.07 0-.082-.023-.082-.17 0-.127-.015-.168-.06-.168-.041 0-.062-.034-.062-.102 0-.067-.02-.101-.06-.101-.035 0-.062-.03-.062-.068 0-.045-.027-.067-.081-.067-.063 0-.081-.023-.081-.102 0-.067-.02-.101-.061-.101-.034 0-.061-.03-.061-.068 0-.037-.028-.067-.062-.067-.04 0-.06-.034-.06-.102 0-.079-.019-.101-.082-.101-.054 0-.081-.023-.081-.068 0-.037-.027-.067-.061-.067s-.061-.023-.061-.051c0-.028-.028-.05-.061-.05-.034 0-.061-.024-.061-.052 0-.028-.037-.05-.082-.05-.054 0-.081-.023-.081-.068 0-.037-.027-.068-.061-.068s-.061-.022-.061-.05c0-.028-.027-.05-.061-.05s-.061-.024-.061-.052c0-.028-.036-.05-.081-.05-.055 0-.082-.023-.082-.068 0-.053-.027-.068-.122-.068-.081 0-.122-.016-.122-.05 0-.028-.036-.051-.081-.051-.045 0-.082-.023-.082-.05 0-.029-.027-.051-.06-.051-.034 0-.062-.03-.062-.068 0-.055-.027-.068-.142-.068-.1 0-.142-.015-.142-.05 0-.028-.028-.051-.061-.051-.034 0-.061-.023-.061-.05 0-.039-.05-.051-.204-.051-.176 0-.203-.01-.203-.068 0-.055-.027-.068-.142-.068-.1 0-.143-.015-.143-.05 0-.034-.04-.051-.122-.051-.081 0-.122-.017-.122-.05 0-.04-.059-.051-.285-.051-.257 0-.284-.007-.284-.068 0-.066-.028-.068-1.078-.068-1.051 0-1.078.002-1.078.068zm7.322.777c0 .248.006.27.081.27.074 0 .081.023.081.237 0 .188.013.237.061.237.047 0 .061.041.061.17 0 .127.015.168.061.168.047 0 .062.041.062.17 0 .146.01.168.08.168.074 0 .082.023.082.22 0 .173.013.22.061.22s.061.047.061.22c0 .172.013.219.061.219.05 0 .061.054.061.287 0 .265.007.288.082.288.078 0 .081.022.081.676 0 .653-.003.676-.081.676-.074 0-.082.022-.082.236 0 .188-.012.237-.06.237-.047 0-.062.041-.062.169s-.015.17-.06.17c-.047 0-.062.04-.062.168 0 .146-.01.17-.081.17-.063 0-.081.022-.081.1 0 .068-.02.102-.062.102-.033 0-.06.03-.06.067 0 .038-.028.068-.062.068-.04 0-.06.034-.06.101 0 .08-.019.102-.082.102-.054 0-.081.023-.081.068 0 .037-.027.067-.061.067s-.061.023-.061.05c0 .029-.028.052-.061.052-.043 0-.061.035-.061.118 0 .096-.016.118-.082.118-.045 0-.081.023-.081.05 0 .029-.028.052-.061.052-.034 0-.061.022-.061.05 0 .028-.028.051-.061.051-.034 0-.061.03-.061.068 0 .054-.027.067-.142.067-.1 0-.143.016-.143.05 0 .029-.027.052-.06.052-.035 0-.062.022-.062.05 0 .028-.036.051-.081.051-.055 0-.082.023-.082.068 0 .037-.027.067-.06.067-.034 0-.062.023-.062.05 0 .036-.043.052-.142.052-.1 0-.142.015-.142.05 0 .028-.028.051-.062.051-.033 0-.06.03-.06.068 0 .054-.028.067-.143.067-.1 0-.142.016-.142.051 0 .034-.04.05-.122.05-.082 0-.122.018-.122.051 0 .036-.043.051-.143.051-.115 0-.142.013-.142.068 0 .037-.027.067-.061.067s-.061.023-.061.051c0 .038-.05.05-.204.05-.153 0-.203.013-.203.051 0 .036-.043.051-.142.051-.115 0-.143.013-.143.068 0 .058-.027.067-.203.067-.154 0-.203.013-.203.051 0 .035-.043.05-.143.05-.1 0-.142.016-.142.051 0 .039-.05.051-.203.051-.177 0-.204.01-.204.068s-.027.067-.203.067c-.154 0-.204.013-.204.051s-.05.05-.203.05c-.154 0-.203.013-.203.051 0 .04-.057.051-.265.051-.237 0-.264.007-.264.068 0 .06-.027.067-.265.067-.207 0-.264.011-.264.051 0 .042-.072.05-.407.05-.334 0-.407.01-.407.051 0 .043-.081.051-.488.051-.46 0-.488.004-.488.068 0 .066-.027.067-1.83.067-1.804 0-1.83 0-1.83-.067 0-.065-.028-.068-.611-.068-.515 0-.61-.008-.61-.05s-.073-.051-.407-.051c-.335 0-.407-.01-.407-.05 0-.043-.072-.052-.407-.052-.38 0-.406-.004-.406-.067 0-.06-.028-.068-.265-.068-.208 0-.264-.01-.264-.05 0-.042-.066-.051-.346-.051-.28 0-.346-.01-.346-.051 0-.042-.072-.05-.407-.05-.38 0-.406-.005-.406-.068 0-.064-.027-.068-.468-.068-.389 0-.468-.008-.468-.05s-.072-.051-.407-.051h-.406v.22c0 .172.013.22.06.22.043 0 .062.035.062.117 0 .096.015.119.08.119.071 0 .082.022.082.169 0 .127.015.169.061.169s.061.041.061.169c0 .127.015.169.061.169.041 0 .061.034.061.101 0 .08.018.102.082.102.07 0 .081.022.081.169 0 .127.015.169.061.169.043 0 .061.035.061.118 0 .083.019.118.061.118.046 0 .061.042.061.17 0 .146.011.168.082.168.065 0 .08.023.08.119 0 .082.02.118.062.118.046 0 .06.041.06.169s.016.169.062.169c.04 0 .06.034.06.101 0 .08.019.102.082.102.07 0 .082.022.082.169 0 .128.015.169.06.169.047 0 .062.041.062.169 0 .127.015.169.06.169.043 0 .062.035.062.118 0 .096.015.119.081.119s.081.022.081.118c0 .082.019.118.061.118.047 0 .061.041.061.17 0 .127.015.168.061.168.041 0 .061.034.061.101 0 .08.019.102.082.102.07 0 .081.023.081.169 0 .128.015.169.061.169.043 0 .061.036.061.118 0 .083.019.119.061.119.043 0 .061.035.061.118 0 .096.016.118.082.118.07 0 .081.023.081.17 0 .127.015.168.061.168s.061.041.061.17c0 .127.015.168.061.168.04 0 .061.034.061.102 0 .079.018.101.081.101.066 0 .082.023.082.118 0 .083.018.119.06.119.043 0 .062.035.062.118 0 .083.018.118.06.118.047 0 .062.042.062.17 0 .146.01.168.081.168.063 0 .082.023.082.102 0 .067.02.101.06.101.047 0 .062.041.062.17 0 .127.015.168.06.168.043 0 .062.036.062.119 0 .095.015.118.081.118s.081.022.081.118c0 .083.019.118.061.118.046 0 .061.042.061.17 0 .127.015.169.061.169.041 0 .061.033.061.1 0 .08.018.102.082.102.066 0 .081.023.081.119 0 .082.019.118.061.118.043 0 .061.035.061.118 0 .083.019.119.061.119.046 0 .061.04.061.168 0 .147.011.17.082.17.063 0 .08.022.08.1 0 .069.021.102.062.102.043 0 .06.036.06.119 0 .082.02.118.062.118.033 0 .061.023.061.05 0 .029.036.051.081.051.066 0 .082.023.082.119V24h.264c.208 0 .264-.01.264-.05 0-.041.064-.051.326-.051.298 0 .325-.006.325-.068 0-.061.027-.068.285-.068.226 0 .285-.01.285-.05 0-.041.063-.051.325-.051s.326-.01.326-.05.057-.051.268-.051c.234 0 .27-.01.29-.068.018-.059.055-.068.28-.068.204 0 .26-.01.26-.05 0-.039.05-.051.203-.051.154 0 .204-.013.204-.05 0-.039.05-.052.203-.052.176 0 .204-.009.204-.067 0-.06.027-.068.264-.068.208 0 .264-.01.264-.05 0-.039.05-.051.204-.051.153 0 .203-.012.203-.05 0-.04.05-.052.204-.052.176 0 .203-.009.203-.067 0-.055.027-.068.142-.068.1 0 .143-.015.143-.05 0-.039.05-.051.203-.051.154 0 .203-.012.203-.05 0-.04.05-.051.204-.051.176 0 .203-.01.203-.068 0-.055.027-.068.143-.068.099 0 .142-.015.142-.05 0-.034.04-.051.122-.051.081 0 .122-.017.122-.05 0-.036.043-.052.142-.052.116 0 .143-.012.143-.067 0-.059.027-.068.203-.068.154 0 .204-.012.204-.05 0-.036.043-.051.142-.051.1 0 .142-.016.142-.05 0-.035.041-.052.122-.052.095 0 .122-.015.122-.067 0-.055.027-.068.143-.068.1 0 .142-.015.142-.05 0-.036.043-.051.143-.051.099 0 .142-.015.142-.05s.04-.052.122-.052c.095 0 .122-.015.122-.067 0-.055.027-.068.142-.068.1 0 .143-.015.143-.05 0-.036.043-.051.142-.051.1 0 .142-.015.142-.05 0-.029.028-.052.061-.052.034 0 .061-.03.061-.067 0-.055.028-.068.143-.068.1 0 .142-.015.142-.05 0-.034.04-.051.122-.051.082 0 .122-.017.122-.051 0-.035.043-.05.143-.05.115 0 .142-.014.142-.068 0-.038.027-.068.061-.068s.061-.023.061-.05c0-.036.043-.051.142-.051.1 0 .143-.016.143-.051 0-.028.027-.05.06-.05.035 0 .062-.03.062-.068 0-.055.027-.068.142-.068.1 0 .143-.015.143-.05 0-.028.027-.051.06-.051.034 0 .062-.023.062-.051 0-.035.043-.05.142-.05.115 0 .142-.014.142-.068 0-.038.027-.068.061-.068s.061-.023.061-.05c0-.036.043-.051.143-.051.1 0 .142-.016.142-.051 0-.028.028-.05.061-.05.034 0 .061-.03.061-.068 0-.045.027-.068.082-.068.045 0 .08-.023.08-.05 0-.029.028-.051.062-.051.033 0 .06-.023.06-.051 0-.034.042-.05.127-.05.091 0 .131-.02.147-.068.012-.038.046-.068.077-.068s.057-.023.057-.05c0-.029.027-.051.06-.051.034 0 .062-.021.062-.047s.036-.055.081-.065c.045-.01.081-.041.081-.071 0-.03.028-.054.061-.054.034 0 .062-.023.062-.05 0-.036.042-.051.142-.051.1 0 .142-.016.142-.051 0-.028.028-.05.061-.05.034 0 .061-.03.061-.068 0-.038.027-.068.061-.068s.061-.023.061-.05c0-.029.037-.052.082-.052.045 0 .081-.022.081-.05 0-.028.027-.05.061-.05s.061-.03.061-.069c0-.037.027-.067.061-.067s.061-.023.061-.05c0-.029.036-.052.081-.052.046 0 .082-.022.082-.05 0-.028.027-.05.06-.05.035 0 .062-.031.062-.069 0-.037.027-.067.06-.067.034 0 .062-.023.062-.05 0-.029.036-.051.081-.051.066 0 .081-.023.081-.119 0-.082.019-.118.062-.118.033 0 .06-.023.06-.05 0-.029.028-.052.062-.052.033 0 .06-.02.06-.046s.037-.055.082-.065c.045-.01.081-.042.081-.071 0-.03.028-.054.061-.054.034 0 .061-.023.061-.05 0-.029.028-.052.061-.052.043 0 .061-.035.061-.118 0-.096.016-.118.082-.118.045 0 .081-.023.081-.05 0-.029.028-.052.061-.052.043 0 .061-.035.061-.118 0-.082.018-.118.061-.118.034 0 .061-.023.061-.05 0-.03.036-.052.081-.052.066 0 .082-.022.082-.118 0-.083.018-.118.06-.118.035 0 .062-.023.062-.05 0-.029.027-.052.06-.052.044 0 .062-.035.062-.118 0-.096.015-.118.081-.118.064 0 .082-.023.082-.102 0-.067.02-.101.06-.101.035 0 .062-.03.062-.068 0-.037.027-.067.06-.067.047 0 .062-.042.062-.17 0-.146.01-.168.081-.168.063 0 .081-.023.081-.102 0-.067.02-.101.061-.101.043 0 .061-.036.061-.118 0-.083.019-.119.061-.119.047 0 .061-.041.061-.169 0-.146.011-.169.082-.169.07 0 .081-.022.081-.169 0-.127.015-.169.061-.169.048 0 .061-.047.061-.22 0-.172.013-.22.061-.22.05 0 .061-.059.061-.333 0-.306.007-.336.082-.352.079-.017.081-.046.081-1.018 0-.978-.002-1-.081-1-.075 0-.082-.023-.082-.288 0-.233-.011-.287-.06-.287s-.062-.047-.062-.22-.013-.22-.06-.22c-.049 0-.062-.047-.062-.22 0-.196-.008-.219-.081-.219-.066 0-.082-.023-.082-.118 0-.083-.018-.119-.06-.119-.047 0-.062-.04-.062-.169 0-.127-.014-.169-.06-.169-.043 0-.062-.035-.062-.118 0-.096-.015-.118-.08-.118-.064 0-.082-.023-.082-.102 0-.067-.02-.101-.061-.101-.043 0-.061-.036-.061-.118 0-.083-.019-.119-.061-.119-.043 0-.061-.035-.061-.118 0-.096-.016-.118-.082-.118-.063 0-.081-.023-.081-.102 0-.067-.02-.101-.061-.101-.034 0-.061-.03-.061-.068 0-.037-.027-.067-.061-.067-.04 0-.061-.034-.061-.102 0-.079-.018-.101-.082-.101-.065 0-.08-.023-.08-.118 0-.083-.02-.119-.062-.119-.033 0-.06-.023-.06-.05 0-.028-.028-.051-.062-.051s-.06-.03-.06-.068c0-.045-.028-.067-.082-.067-.064 0-.082-.023-.082-.102 0-.067-.02-.101-.06-.101-.034 0-.062-.03-.062-.068 0-.037-.027-.067-.06-.067-.034 0-.062-.023-.062-.051 0-.028-.036-.05-.081-.05-.045 0-.081-.023-.081-.052 0-.027-.028-.05-.061-.05-.043 0-.061-.036-.061-.119 0-.082-.019-.118-.061-.118-.034 0-.061-.023-.061-.05 0-.029-.037-.051-.082-.051-.054 0-.081-.023-.081-.068 0-.037-.027-.067-.061-.067s-.061-.023-.061-.051c0-.028-.028-.05-.061-.05-.034 0-.061-.024-.061-.052 0-.028-.036-.05-.082-.05-.054 0-.08-.023-.08-.068 0-.037-.028-.068-.062-.068s-.061-.022-.061-.05c0-.028-.027-.05-.061-.05s-.061-.024-.061-.052c0-.028-.036-.05-.081-.05-.055 0-.082-.023-.082-.068 0-.037-.027-.068-.06-.068-.034 0-.062-.022-.062-.05 0-.036-.043-.051-.142-.051-.1 0-.142-.015-.142-.05 0-.029-.028-.051-.061-.051-.034 0-.061-.03-.061-.068 0-.037-.028-.068-.062-.068-.033 0-.06-.022-.06-.05 0-.036-.043-.051-.143-.051h-.142v.27z" clip-rule="evenodd"/>
  </g>
  <defs>
    <filter id="filter0_d_57_413" width="32" height="32" x="0" y="0" color-interpolation-filters="sRGB" filterUnits="userSpaceOnUse">
      <feFlood flood-opacity="0" result="BackgroundImageFix"/>
      <feColorMatrix in="SourceAlpha" result="hardAlpha" values="0 0 0 0 0 0 0 0 0 0 0 0 0 0 0 0 0 0 127 0"/>
      <feOffset dy="4"/>
      <feGaussianBlur stdDeviation="2"/>
      <feComposite in2="hardAlpha" operator="out"/>
      <feColorMatrix values="0 0 0 0 0 0 0 0 0 0 0 0 0 0 0 0 0 0 0.25 0"/>
      <feBlend in2="BackgroundImageFix" result="effect1_dropShadow_57_413"/>
      <feBlend in="SourceGraphic" in2="effect1_dropShadow_57_413" result="shape"/>
    </filter>
  </defs>
</svg>
