<svg xmlns="http://www.w3.org/2000/svg" width="222" height="192" fill="none" viewBox="0 0 222 192">
  <g clip-path="url(#clip0_39_1421)">
    <path fill="#D196A8" d="M120.368 3.314c-.858-3.607-5.432-3.69-8.738-2.931-15.433 3.54-32.69 9.714-47.718 14.975a162.09 162.09 0 00-25.887 12.13c-2.504 1.454-5.387 4.383-3.982 7.095 1.014 1.96 3.515 2.003 5.55 1.769 21.337-2.466 42.361-8.218 62.277-17.038 5.61-2.484 11.23-5.28 15.768-9.69 1.668-1.629 3.297-3.93 2.73-6.31zM200.54 135.785c.248 4.98-.33 10.269-2.538 15.114-.042.093-.086.185-.131.278a17.344 17.344 0 01-.517 1.037 24.378 24.378 0 01-2.805 4.2c-1.375 1.657-3.08 3.15-5.025 4.496a34.347 34.347 0 01-2.481 1.567c-11.842 6.845-30.148 9.338-40.395 10.233-2.54.05-5.077.21-7.603.475H139.031a92.033 92.033 0 00-13.097 2.333c-14.813 3.756-28.725 11.159-43.586 14.686-13.295 3.157-28.312 2.641-39.427-5.536-2.336-1.719-4.203-4.117-5.463-6.888-1.434-3.154-2.635-5.962-3.873-8.615-.193-.414-.386-.821-.581-1.229-.031-.061-.06-.123-.09-.185-1.531-3.163-3.19-6.156-5.466-9.325-.34-.476-.695-.957-1.067-1.441l-.003-.004a43.53 43.53 0 00-.573-.74c-.058-.077-.12-.154-.181-.232a69.777 69.777 0 00-1.816-2.187c-2.225-2.571-4.622-4.953-6.928-7.437l-.612-.664c-.162-.176-.32-.355-.483-.534a69.96 69.96 0 01-1.833-2.114C2.934 129.783-2.076 110.693.799 92.953 3.674 75.215 14.37 59.23 28.88 50.985c2.666-1.515 5.421-2.768 8.24-3.833.372-.142.744-.278 1.118-.413 9.339-3.345 19.329-4.731 29.047-6.7 19.734-3.99 39.028-10.615 57.331-19.685 3.046-1.509 6.075-3.089 9.112-4.662.372-.195.747-.386 1.118-.577 9.761-5.043 19.6-9.897 30.168-11.89 4.543-.855 9.24-1.16 13.731-.022 11.946 3.037 20.357 16.624 20.359 30.161.006 15.467-9.162 29.65-8.894 45.113.095 5.499 1.383 10.797 3.325 15.87 1.825 4.774 4.228 9.348 6.76 13.702.162.277.324.552.489.83 1.713 2.922 3.495 5.814 5.222 8.733l-5.801 14.423c.16 1.222.274 2.475.336 3.75z"/>
    <path fill="#B29EEF" d="M198.002 150.899c-.041.093-.086.185-.131.278l-128.128 14.46-.1.013-43.838-9.409c-.058-.077-.12-.154-.181-.232a69.638 69.638 0 00-1.816-2.187c-2.225-2.571-4.622-4.953-6.927-7.437l-.613-.664 115.386-6.104 53.578-2.833 13.413-.876 1.895-.123c.248 4.98-.33 10.269-2.538 15.114z"/>
    <path fill="#D9A5B5" d="M134.845 15.114v84.56c0 .339-.251.617-.559.617-.31 0-.559-.278-.559-.617V15.692c.372-.195.747-.386 1.118-.578z"/>
    <path fill="#fff" d="M197.798 151.331c-.139.296-.287.593-.444.883a24.332 24.332 0 01-2.805 4.199c-1.375 1.658-3.08 3.151-5.025 4.497-.245.172-.494.339-.748.503L87.25 174.296l-15.973 2.027-.276-5.607-.207-4.169.025-.003 8.403-1.006 118.576-14.207z"/>
    <path fill="#D9A5B5" d="M38.237 46.739v89.428c0 .343-.248.617-.559.617-.307 0-.558-.274-.558-.617V47.152a70.75 70.75 0 011.117-.413z"/>
    <path fill="#FEECD6" d="M81.17 90.144c-1.552-3.342-4.564-5.502-8.993-6.464-.003-.003-.006-.003-.011-.003-2.716-.593-5.963-.738-9.738-.43-17.409 1.43-30.215 5.216-38.062 11.252-5.356 4.122-7.62 11.809-5.499 18.697l9.71 31.541.33 1.074 25.258-1.963 5.88-.457.12-.009.075-.102c.002-.006.025-.034.064-.086.73-.969 7.377-9.906 13.139-20.463 8.196-15.009 10.794-25.973 7.726-32.587zm-21.282 52.639l-20.019 1.559-9.199.713h-.003l-1.369.108-.137-.448-9.766-31.72c-2.04-6.625.137-14.025 5.293-17.99 5.792-4.46 14.343-7.678 25.503-9.613.02-.003.042-.006.067-.012 3.773-.651 7.847-1.154 12.212-1.515a45.018 45.018 0 013.663-.158c7.584 0 12.465 2.253 14.539 6.722 6.932 14.944-19.172 50.204-20.784 52.354z"/>
    <path fill="#FEECD6" d="M30.799 145.487l-9.97-32.393c-2.082-6.761.092-14.263 5.395-18.342 6.165-4.743 17.41-9.514 37.922-11.196 45.64-3.743-2.422 59.527-2.422 59.527l-30.925 2.404z"/>
    <path fill="#3F4553" d="M114.251 30.578c.218-.95.268-1.815.252-2.663-.02-.846-.118-1.691-.174-2.614a11.814 11.814 0 00-.352-1.713c-.628-2.255-1.88-4.35-3.509-5.881-3.259-3.058-7.685-4.185-11.957-4.339-6.405-.235-13.346 1.867-17.166 7.548-3.26 4.845-3.652 11.245-5.13 17.056-2.428 9.557-7.964 17.83-14.313 24.853-3.719 4.117-7.974 8.31-8.953 14.026-.958 5.607 1.702 11.47 5.79 14.957 1.49 1.271 3.18 2.29 5.008 2.79 1.858.509 3.814.469 5.7.114 5.79-1.09 10.761-5 15.657-8.58.489-.357.983-.715 1.475-1.11 3.554-2.953 3.834-8.2 6.628-11.902.49-.735.992-1.253 1.5-1.599 6.604-.253 17.502-4.264 19.209 6.018.179.567.358 1.132.556 1.672.796 2.157 1.903 3.925 4.39 4.064.43.037.866.053 1.305.047 2.188-.034 4.404-.655 5.921-2.346 1.612-1.796 2.14-4.471 2.157-6.998.025-3.521-.813-7.045-2.4-10.097a24.513 24.513 0 00-2.102-3.32 30.116 30.116 0 00-1.207-1.525c-5.857-4.431-9.769-11.838-8.981-19.815.009-.771.039-1.54.087-2.314.145-2.314.453-4.65.782-6.952l-.173.623z"/>
    <path fill="#4E5567" d="M111.574 31.843c-1.319 4.33.397 8.798 2.901 12.162 3.118 4.19 7.147 7.285 9.824 11.914 2.677 4.632 4.835 10.507 3.745 16.09-.447 2.296-1.59 3.23-3.563 3.823-1.657.497-3.199 1.028-4.627 2.123-.33.253-.017.855.318.599 1.657-1.272 3.446-1.633 5.312-2.32 1.168-.433 2.127-1.136 2.683-2.386 1.883-4.24.405-10.066-1.247-14.075-2.076-5.042-5.247-8.825-8.83-12.602-3.663-3.86-7.74-9.128-5.907-15.143.129-.426-.48-.608-.609-.185z"/>
    <path fill="#fff" d="M90.5 67.645l3.24-2.62 4.148-2.16 12.739 4.78 5.44 63.603-14.061 3.904-9.693-32.248-1.814-35.259z"/>
    <path fill="#4E5567" d="M116.386 58.576c5.287 1.166 10.272 4.465 13.069 9.662 2.909 5.403 2.959 12.47-.263 17.716-.226.37.316.719.542.352 3.261-5.314 3.281-12.455.473-18.013-2.811-5.567-8.087-9.155-13.656-10.384-.394-.092-.562.578-.165.667zM73.563 50.352c-4.133 3.595-8.09 7.43-12.217 11.035-3.255 2.842-6.904 5.37-9.19 9.304-4.518 7.776-1.238 17.374 4.988 22.607 3.495 2.941 8.237 5.277 12.66 3.78.386-.13.221-.802-.167-.67-4.057 1.374-8.391-.675-11.669-3.295-3.26-2.604-5.902-6.301-6.905-10.659-.975-4.24-.178-8.745 2.166-12.263 2.275-3.413 5.591-5.718 8.562-8.31 4.127-3.601 8.084-7.44 12.216-11.035.319-.278-.128-.768-.444-.494z"/>
    <path fill="#400F58" d="M128.117 148.813l-42.267-1.12c0-1.256.855-2.308 1.987-2.441l43.652-5.206-3.372 8.767z"/>
    <path fill="#4E5567" d="M79.887 33.337c-.498 5.366-1.512 10.741-3.608 15.645-2.079 4.866-5.348 8.662-8.687 12.495-2.985 3.425-5.989 7.042-7.447 11.606a16.11 16.11 0 00.668 11.529c1.629 3.6 4.61 6.233 8.363 6.147.405-.01.405-.704 0-.695-3.803.087-6.659-2.802-8.106-6.496-1.733-4.422-1.185-9.118.913-13.272 2.135-4.225 5.422-7.533 8.395-11.02 2.847-3.339 5.29-6.909 6.935-11.149 1.822-4.693 2.736-9.73 3.202-14.79.04-.445-.59-.442-.628 0zM111.205 46.183c-.025 6.002 4.463 9.952 7.799 14.02 1.973 2.406 3.736 5.199 3.926 8.544.188 3.296-1.053 6.499-3.252 8.705-.299.303.145.79.444.49 3.937-3.949 4.412-10.247 1.568-15.092-3.217-5.48-9.887-9.4-9.856-16.667.003-.447-.626-.447-.629 0z"/>
    <path fill="#FB7C85" d="M108.819 67.031c1.215 2.86.142 6.221.553 9.35 2.392 18.247 1.797 36.929 2.054 55.321.039 2.793.148 5.817 1.738 7.992.302.414.671.799 1.132.96.363.126.754.102 1.137.077l16.204-1.083-5.264-34.367c4.214 5.773 8.425 11.547 12.639 17.321l5.345-15.464c.212-.617.43-1.265.349-1.919-.072-.58-.371-1.089-.665-1.577a348.305 348.305 0 00-12.985-20.03c-2.758-3.947-5.644-7.872-9.311-10.78-3.797-3.017-8.466-4.613-12.926-5.8z"/>
    <path fill="#FFB9A3" d="M129.475 137.241c.008.398-.269.734-.568.953-.55.399-1.212.55-1.863.649-2.948.441-6.008-.078-8.702-1.469l3.283 4.885c.146.216.299.475.235.734-.05.21-.226.346-.391.46a6.412 6.412 0 01-.696.407 6.783 6.783 0 01-4.074.691c-2.945-.435-5.435-2.805-8.383-3.237-1.489-.222-2.998.071-4.502.167-1.503.093-3.104-.043-4.333-1-.297-.228-.573-.512-.707-.882-.344-.932.307-1.914.835-2.735a13.748 13.748 0 001.99-5.323c1.623-.108 3.682-.713 5.25-1.178 2.283-.676 4.739-1.716 6.91-.689.506.241.967.584 1.425.923 3.795 2.817 7.936 5.638 12.511 5.635.746 0 1.766.185 1.78 1.009z"/>
    <path fill="#FF9B8D" d="M120.773 143.86a6.79 6.79 0 01-4.074.692c-2.945-.436-5.435-2.805-8.383-3.238-1.489-.222-2.998.071-4.502.167-1.503.093-3.104-.043-4.333-1-.297-.228-.573-.512-.707-.882-.344-.932.307-1.914.835-2.734.165-.256.319-.519.464-.787 1.073.851 3.317 1.894 7.595 1.311 6.776-.926 5.379 3.395 10.199 4.938 1.551.496 2.428 1.033 2.906 1.533z"/>
    <path fill="#4E5567" d="M113.03 22.197c-2.878-10.273-13.717-12.61-22.159-10.233-4.08 1.148-7.924 3.54-10.61 7.168-3.171 4.287-4.429 9.81-5.16 15.174-.479 3.496-.727 7.038-1.465 10.485-.43 2.012-1.392 3.787-2.043 5.715-.142.42.467.602.607.185.489-1.45 1.21-2.795 1.673-4.249.702-2.19.945-4.613 1.224-6.906.663-5.437 1.168-11.032 3.387-16.028 3.91-8.8 12.974-12.63 21.477-11.492 5.709.762 10.694 4.061 12.46 10.366.123.425.729.243.609-.186z"/>
    <path fill="#FFB9A3" d="M92.369 38.206c-2.912-.969-4.368.333-4.717 2.601-.352 2.266 1.512 4.617 3.59 4.537.202 2.796.562 5.62 1.585 8.187 1.02 2.567 2.775 4.878 5.122 5.946 2.616 1.194 5.812.642 7.975-1.373.866-.809 1.562-1.815 2.219-2.836 2.006-3.123 3.747-6.533 4.51-10.27.763-3.737.461-7.847-1.375-11.097-.198-.352-.43-.706-.766-.895-.477-.268-1.05-.138-1.567.01-5.583 1.623-10.806 5.209-16.576 5.19z"/>
    <path fill="#3F4553" d="M114.019 24.607c.417 1.632.836 3.295.777 4.99-.059 1.694-.679 3.453-1.953 4.4-1.017.756-2.297.901-3.457 1.336-2.35.88-4.166 2.91-5.999 4.759-1.735 1.75-3.915 3.493-6.217 2.984-2.118-.47-3.518-2.694-4.382-4.882-.464-1.173-.844-2.475-.573-3.719.157-.716.52-1.358.922-1.944 2.317-3.357 6.075-5.206 9.85-5.848 3.778-.641 7.629-.21 11.429.226l-.397-2.302z"/>
    <path fill="#4E5567" d="M92.841 38.32c.816 5.292 6.293 7.922 10.317 4.808 1.911-1.478 3.143-3.728 4.811-5.49 1.772-1.87 4.863-2.678 5.354-5.675.073-.438-.533-.623-.606-.185-.442 2.676-3.267 3.447-4.907 5.073-1.322 1.312-2.341 2.941-3.585 4.34-1.66 1.866-3.8 3.045-6.215 2.465-2.459-.593-4.152-2.845-4.565-5.52-.065-.44-.671-.25-.604.184z"/>
    <path fill="#6737C3" d="M198.002 150.899c-.042.093-.086.185-.131.278-.022.052-.048.102-.073.154-.139.296-.287.593-.444.883L79.222 165.539l-8.406.947.003.059.182 4.172.246 5.675 16.003-2.096 102.274-13.386a34.347 34.347 0 01-2.481 1.567l-116.26 15.217a.523.523 0 01-.425-.142.632.632 0 01-.198-.441l-.484-11.15a.659.659 0 01.067-.324.56.56 0 01.433-.321l127.826-14.417z"/>
    <path fill="#6737C3" d="M70.783 166.051c-.053.293-.288.497-.548.497a.573.573 0 01-.109-.01l-.372-.08-42.837-9.356v-.003l-.536-.114-.003-.004a60.9 60.9 0 00-.754-.972c.109-.234.349-.373.6-.317l44.117 9.634c.305.068.5.392.442.725zM71.266 177.209c-.056.29-.288.491-.547.491-.037 0-.076-.006-.115-.012l-37.02-8.524c-.192-.413-.385-.82-.58-1.228-.031-.061-.059-.123-.09-.185l37.193 8.56.726.167c.302.071.495.398.433.731zM54.646 144.44c.008.34-.232.627-.543.636l-37.223 1.309a86.06 86.06 0 01-1.095-1.198l12.792-.45.584-.022 1.39-.046 9.318-.327 10.35-.364 3.851-.136a.49.49 0 01.095.006c.263.04.47.287.48.592z"/>
    <path fill="#D9A5B5" d="M168.368 68.118c.381-1.774-.613-3.554-2.22-3.975-1.606-.42-3.218.676-3.599 2.45-.381 1.775.613 3.555 2.219 3.975 1.607.421 3.218-.676 3.6-2.45z"/>
    <path fill="#D9A5B5" d="M165.46 74.422c-3.527 0-6.396-3.17-6.396-7.064s2.869-7.063 6.396-7.063c3.526 0 6.396 3.17 6.396 7.063.003 3.895-2.867 7.064-6.396 7.064zm0-13.822c-3.373 0-6.117 3.03-6.117 6.755s2.744 6.755 6.117 6.755c3.372 0 6.117-3.03 6.117-6.755.002-3.724-2.742-6.755-6.117-6.755zM125.434 31.362c.617 0 1.118-.553 1.118-1.235 0-.681-.501-1.234-1.118-1.234-.617 0-1.118.553-1.118 1.234 0 .682.501 1.235 1.118 1.235zM18.747 82.263c-2.28 0-4.136-2.049-4.136-4.567 0-2.518 1.856-4.567 4.136-4.567 2.28 0 4.136 2.05 4.136 4.567 0 2.518-1.856 4.567-4.136 4.567zm0-8.517c-1.973 0-3.577 1.772-3.577 3.95 0 2.179 1.604 3.95 3.577 3.95 1.973 0 3.577-1.771 3.577-3.95 0-2.178-1.604-3.95-3.577-3.95zM53.623 28.893c0 1.03-.757 1.867-1.69 1.867-.934 0-1.691-.836-1.691-1.867 0-1.03.757-1.867 1.69-1.867.936.003 1.69.836 1.69 1.867z"/>
    <path fill="#FEECD6" d="M211.468 104.037l-5.463 13.575-5.801 14.423-1.559 3.873-4.407 10.952-66.119 1.953 3.535-9.196 15.349-39.925c.836-2.17 2.702-3.638 4.832-3.805 7.637-.586 26.406-1.864 41.699-1.54 5.058.105 9.738.39 13.505.93 1.33.19 2.468.867 3.312 1.832 1.542 1.753 2.112 4.459 1.117 6.928z"/>
    <path fill="#FEECD6" d="M126.06 148.924l-.52-.225 3.535-9.909 15.352-40.326c.88-2.308 2.822-3.854 5.069-4.03 7.441-.577 26.403-1.882 41.725-1.555 5.463.114 10.015.432 13.535.94 1.344.195 2.546.868 3.477 1.945 1.707 1.96 2.168 4.839 1.17 7.335l-12.823 32.186-.511-.25 12.823-32.186c.905-2.265.486-4.879-1.065-6.66-.844-.974-1.931-1.582-3.146-1.758-3.499-.506-8.034-.821-13.474-.935-15.299-.327-34.242.978-41.675 1.555-2.034.16-3.794 1.561-4.594 3.654l-15.349 40.32-3.529 9.899z"/>
    <path fill="#B29EEF" d="M176.739 124.068c2.752-2.798 3.611-6.713 1.917-8.744-1.693-2.031-5.297-1.409-8.049 1.389s-3.61 6.712-1.917 8.744c1.693 2.031 5.297 1.409 8.049-1.389z"/>
    <path fill="#fff" d="M127.2 106.342c-1.313-2.87-3.054-5.496-4.096-8.514-.19-.552-1.001-.311-.808.247 1.073 3.098 2.834 5.789 4.183 8.736.241.531.964.062.721-.469zM115.707 134.726c1.755 4.311 7.696 5.043 11.334 4.577.531-.068.536-.994 0-.926-3.35.429-8.978-.105-10.61-4.117-.221-.543-.945-.071-.724.466z"/>
    <path fill="#FB7C85" d="M102.007 131.069a403.868 403.868 0 00-2.155-25.19c-.794-6.776-1.542-13.584-3.037-20.228-.746-3.314-1.68-6.579-2.87-9.736-1.126-2.99-2.965-6.251-1.822-9.587-2.996 2.376-4.968 3.348-8.403 4.83-2.766 1.193-5.638 2.076-8.38 3.341-1.592.735-3.154 1.608-4.454 2.86-1.47 1.417-2.548 3.256-3.557 5.099-1.14 2.082-2.221 4.209-3.15 6.418-1.489 3.546-2.573 7.277-3.81 10.936-2.214 6.536-4.927 12.859-7.895 19.022-1.872 3.888-3.884 7.835-4.409 12.201-.525 4.367.819 9.335 4.284 11.514 1.581.993 3.434 1.314 5.25 1.466 13.265 1.095 25.84-.917 40.83-3.068.412-.058-.382.173 0 0 .442-.197.697-.694.906-1.166 1.21-2.728 2.495-5.675 2.672-8.712z"/>
    <path fill="#fff" d="M80.36 106.231a143.552 143.552 0 00-5.073 17.404.483.483 0 00.294.571c7.058 2.444 14.48 2.787 21.695 4.401.98.219 4.026.512 4.247 1.719.154.845-.179 2.012-.335 2.832-.548 2.886-1.487 5.885-3.317 8.092-.363.438.226 1.095.592.654 1.895-2.287 2.915-5.345 3.499-8.332.316-1.611 1.059-3.944-.648-4.799-1.817-.91-4.136-1.154-6.09-1.524-2.112-.401-4.235-.722-6.359-1.049-4.407-.679-8.808-1.411-13.063-2.886l.293.571a142.911 142.911 0 015.072-17.404c.198-.555-.612-.796-.808-.25z"/>
    <path fill="#fff" d="M75.634 123.312a23.804 23.804 0 00-6.673 2.172c-.492.244-.067 1.04.422.799a23.07 23.07 0 016.474-2.08c.531-.086.305-.981-.223-.891z"/>
    <path fill="#FFB9A3" d="M104.594 75.737c-1.967.786-4.147.546-6.2.092-2.038-.45-4.24-1.259-5.285-3.243-1.319-2.497-.254-5.613.375-8.418.807-3.583.838-7.376.095-10.974l7.723 1.645 2.621.559c-.07 3.718.791 7.452 2.465 10.68.159.305.324.608.486.913.609 1.133 1.196 2.29 1.258 3.586.111 2.308-1.568 4.373-3.538 5.16z"/>
    <path fill="#FF9B8D" d="M106.874 66.991c-7.229-.586-9.984-6.138-10.895-8.804a7.971 7.971 0 001.97 1.29c1.984.904 4.301.805 6.246-.17a22.054 22.054 0 002.193 6.77c.159.306.324.609.486.914z"/>
    <mask id="a" fill="#fff">
      <path d="M165.46 44.943c-8.847 0-16.045-7.95-16.045-17.72s7.198-17.719 16.045-17.719c8.847 0 16.045 7.95 16.045 17.72s-7.196 17.719-16.045 17.719zm0-35.13c-8.693 0-15.766 7.81-15.766 17.41 0 9.6 7.073 17.411 15.766 17.411s15.765-7.81 15.765-17.41c0-9.6-7.072-17.411-15.765-17.411z"/>
    </mask>
    <path fill="#F9F7F1" d="M165.46 44.943c-8.847 0-16.045-7.95-16.045-17.72s7.198-17.719 16.045-17.719c8.847 0 16.045 7.95 16.045 17.72s-7.196 17.719-16.045 17.719zm0-35.13c-8.693 0-15.766 7.81-15.766 17.41 0 9.6 7.073 17.411 15.766 17.411s15.765-7.81 15.765-17.41c0-9.6-7.072-17.411-15.765-17.411z"/>
    <path fill="#F9F7F1" d="M165.46 39.943c-5.63 0-11.045-5.233-11.045-12.72h-10c0 12.053 8.981 22.72 21.045 22.72v-10zm-11.045-12.72c0-7.486 5.415-12.719 11.045-12.719v-10c-12.064 0-21.045 10.667-21.045 22.72h10zm11.045-12.719c5.63 0 11.045 5.233 11.045 12.72h10c0-12.053-8.982-22.72-21.045-22.72v10zm11.045 12.72c0 7.487-5.413 12.719-11.045 12.719v10c12.067 0 21.045-10.667 21.045-22.72h-10zM165.46 4.813c-11.91 0-20.766 10.527-20.766 22.41h10c0-7.317 5.289-12.41 10.766-12.41v-10zm-20.766 22.41c0 11.884 8.856 22.411 20.766 22.411v-10c-5.477 0-10.766-5.093-10.766-12.41h-10zm20.766 22.411c11.91 0 20.765-10.527 20.765-22.41h-10c0 7.317-5.289 12.41-10.765 12.41v10zm20.765-22.41c0-11.884-8.855-22.411-20.765-22.411v10c5.476 0 10.765 5.093 10.765 12.41h10z" mask="url(#a)"/>
    <mask id="b" fill="#fff">
      <path d="M165.292 27.403l2.107-13.67.277.052-2.043 13.26c2.677-.374 6.586-.954 6.857-1.099l.051.117.022.003.103-.114.037.167c-.034.11-.081.265-7.221 1.256l-.19.028z"/>
    </mask>
    <path fill="#F9F7F1" d="M165.292 27.403l2.107-13.67.277.052-2.043 13.26c2.677-.374 6.586-.954 6.857-1.099l.051.117.022.003.103-.114.037.167c-.034.11-.081.265-7.221 1.256l-.19.028z"/>
    <path fill="#F9F7F1" d="M165.292 27.403l-4.942-.762-1.03 6.688 6.695-.979-.723-4.947zm2.107-13.67l.932-4.913-5.085-.965-.789 5.115 4.942.762zm.277.052l4.941.76.736-4.773-4.746-.9-.931 4.913zm-2.043 13.26l-4.942-.762-1.023 6.642 6.656-.928-.691-4.952zm6.857-1.099l4.595-1.97-2.148-5.01-4.806 2.572 2.359 4.408zm.051.117l-4.596 1.971 1.114 2.596 2.798.386.684-4.953zm.022.003l-.684 4.953 2.617.362 1.773-1.959-3.706-3.356zm.103-.114l4.886-1.065-2.07-9.494-6.522 7.203 3.706 3.356zm.037.167l4.786 1.445.375-1.242-.276-1.268-4.885 1.065zm-7.221 1.256l-.687-4.953-.018.003-.018.002.723 4.948zm4.752.79l2.107-13.671-9.884-1.524-2.107 13.671 9.884 1.523zm-3.767-9.52l.277.052 1.863-9.825-.276-.052-1.864 9.825zm-3.733-5.622l-2.043 13.26 9.884 1.523 2.042-13.26-9.883-1.523zm3.59 18.974c1.353-.19 3.029-.432 4.41-.647.686-.107 1.33-.212 1.835-.303.248-.045.506-.094.736-.145a8.15 8.15 0 00.435-.107c.029-.008.551-.142 1.109-.44l-4.718-8.817a4.717 4.717 0 01.925-.376c.079-.022.12-.03.094-.025-.046.01-.158.033-.358.069-.387.07-.939.16-1.598.263-1.311.205-2.929.439-4.252.624l1.382 9.904zm1.571-4.08l.05.117 9.191-3.942-.051-.117-9.19 3.942zm3.962 3.1l.022.002 1.368-9.906-.023-.003-1.367 9.906zm4.412-1.595l.104-.114-7.413-6.712-.103.114 7.412 6.712zm-8.488-2.405l.036.167 9.771-2.13-.036-.167-9.771 2.13zm.135-2.343c-.011.036.106-.39.354-.862.278-.53.638-.98 1.041-1.347.683-.621 1.355-.87 1.488-.92.319-.12.466-.126.006-.036-.76.147-2.434.417-6.01.913l1.374 9.905c3.563-.494 5.483-.796 6.54-1.001.448-.087 1.06-.214 1.621-.425.253-.096.99-.383 1.71-1.038a5.077 5.077 0 001.449-2.3l-9.573-2.889zm-3.157-2.247l-.19.028 1.446 9.895.19-.028-1.446-9.895z" mask="url(#b)"/>
    <path fill="#D196A8" d="M219.736 51.642c-.645-2.117-1.45-4.265-2.939-5.777-2.828-2.873-7.52-2.555-10.663-.11-3.144 2.443-4.941 6.523-5.88 10.636-.86 6.552-.642 11.193 1.146 18.087.872 3.357 2.213 6.69 4.555 9.041 2.342 2.352 5.848 3.521 8.771 2.185 2.789-1.274 4.466-4.45 5.483-7.585 2.749-8.468 2.123-17.954-.473-26.477z"/>
    <path fill="#fff" d="M77.73 104.154c.483.426.835.991 1.296 1.441.439.429.947.753 1.456 1.071.472.293.894-.506.422-.799-.498-.309-1-.617-1.414-1.055-.402-.429-.73-.926-1.168-1.312-.42-.367-1.014.284-.593.654zM123.076 98.26a73.049 73.049 0 001.676-2.765c.291-.503-.433-.969-.724-.466a72.89 72.89 0 01-1.676 2.765c-.31.488.416.95.724.466z"/>
    <path fill="#FF9B8D" d="M91.184 45.655c.335 4.53 1.328 10.906 5.192 13.445 1.76 1.158 4.119 1.985 6.175 1.608 2.088-.382 3.608-2.089 4.877-3.83.251-.345-.191-.839-.445-.49-1.196 1.642-2.59 3.271-4.56 3.623-2.02.36-4.454-.528-6.123-1.78-3.302-2.482-4.182-8.509-4.484-12.573-.037-.447-.665-.45-.632-.003z"/>
    <path fill="#fff" d="M76.72 154.682H64.427l-2.566-18.395h17.697l-2.836 18.395z"/>
    <path fill="#fff" d="M70.556 156.963c3.405 0 6.165-1.021 6.165-2.281 0-1.259-2.76-2.28-6.165-2.28-3.404 0-6.164 1.021-6.164 2.28 0 1.26 2.76 2.281 6.164 2.281zM70.71 138.568c4.888 0 8.85-1.021 8.85-2.28 0-1.26-3.963-2.281-8.85-2.281s-8.85 1.021-8.85 2.281c0 1.259 3.963 2.28 8.85 2.28z"/>
    <path fill="#400F58" d="M70.71 138.186c4.065 0 7.36-.85 7.36-1.898s-3.295-1.898-7.36-1.898-7.36.85-7.36 1.898 3.295 1.898 7.36 1.898z"/>
    <g>
      <path fill="#fff" d="M63.02 138.238c-2.906.45-5.815.901-8.721 1.355-.66.101-.76 1.098-.369 1.546 1.995 2.311 3.985 4.628 5.988 6.93 1.727 1.988 3.504 3.895 5.676 5.28.936.599 1.78-.999.846-1.598-2.19-1.401-3.934-3.373-5.67-5.379-1.886-2.178-3.769-4.363-5.652-6.545l-.37 1.546c2.907-.45 5.816-.901 8.722-1.355 1.059-.16.606-1.944-.45-1.78z"/>
    </g>
    <g>
      <path fill="#fff" d="M68.435 136.241a8.931 8.931 0 01-.718-1.141c-.318-.602-.385-.692-.173-1.374.212-.685.707-.901 1.062-1.462.383-.602.517-1.327.098-1.951-.484-.716-1.473-.898-2.219-.793-.179.025-.35.087-.52.139-.545.164-1.54.043-1.911-.549-.556-.886.858-2.191 1.391-2.719.302-.299-.142-.79-.444-.49-.833.823-1.791 1.675-1.618 3.039.14 1.102.788 1.812 1.803 1.682.757-.099 3.981-1.179 2.922 1.129-.327.713-1.115.966-1.366 1.738-.369 1.132.66 2.438 1.25 3.243.253.349.695-.145.443-.491z"/>
    </g>
    <g>
      <path fill="#fff" d="M71.216 135.035c-.338-.423-.875-1.006-.944-1.608-.143-1.234.634-1.268 1.145-1.799.263-.272.447-.531.484-.932.114-1.324-1.26-1.46-2.023-1.938-2.261-1.419-1.14-4.083-.079-5.866.735-1.231 1.38-2.419 1.297-3.944-.025-.444-.654-.447-.629 0 .19 3.373-4.253 5.974-1.886 9.455.397.583.863.892 1.456 1.176.793.383 1.232.96.533 1.861-.153.197-.419.284-.583.5-.923 1.212.02 2.635.782 3.585.271.334.715-.157.447-.49z"/>
    </g>
    <g>
      <path fill="#fff" d="M73.803 135.572c-.234-.556-.564-1.182-.036-1.707.143-.139.355-.182.52-.274.33-.189.578-.414.696-.815.24-.821-.249-1.568-.95-1.796-.389-.127-.556.543-.168.67.492.16.763.833.271 1.252-.115.099-.388.176-.528.266-.235.145-.442.308-.581.568-.392.709-.053 1.515.231 2.191.174.398.716.046.545-.355z"/>
    </g>
  </g>
  <defs>
    <clipPath id="clip0_39_1421">
      <path fill="#fff" d="M0 0h222v192H0z"/>
    </clipPath>
  </defs>
</svg>
